<svg width="30" height="30" viewBox="0 0 30 30" fill="none" xmlns="http://www.w3.org/2000/svg">
<path d="M10.5 21C11.3284 21 12 21.6716 12 22.5C12 23.3284 11.3284 24 10.5 24C9.67157 24 9 23.3284 9 22.5C9 21.6716 9.67157 21 10.5 21Z" stroke="#474747" stroke-width="1.5"/>
<path d="M19.5 21.0001C20.3284 21.0001 21 21.6716 21 22.5001C21 23.3285 20.3284 24.0001 19.5 24.0001C18.6716 24.0001 18 23.3285 18 22.5001C18 21.6716 18.6716 21.0001 19.5 21.0001Z" stroke="#474747" stroke-width="1.5"/>
<path d="M5.26121 6.09184L5.50997 5.38429H5.50997L5.26121 6.09184ZM5.24876 5.29246C4.85799 5.15507 4.42984 5.36048 4.29246 5.75124C4.15507 6.14201 4.36048 6.57016 4.75124 6.70754L5.24876 5.29246ZM7.58584 7.32298L8.20507 6.89983V6.89983L7.58584 7.32298ZM8.88772 17.5862L8.34345 18.1022H8.34345L8.88772 17.5862ZM23.6578 12.8828L24.3923 13.0342L24.3933 13.0296L23.6578 12.8828ZM23.158 15.3075L23.8926 15.4589L23.158 15.3075ZM23.7345 9.69708L23.1401 10.1544L23.7345 9.69708ZM22.1336 18.0504L21.6598 17.469L22.1336 18.0504ZM8.70808 12.76V10.0384H7.20808V12.76H8.70808ZM5.50997 5.38429L5.24876 5.29246L4.75124 6.70754L5.01245 6.79938L5.50997 5.38429ZM13.9375 19.25H19.2404V17.75H13.9375V19.25ZM8.70808 10.0384C8.70808 9.3312 8.7091 8.7411 8.65719 8.26157C8.60346 7.76519 8.48705 7.31247 8.20507 6.89983L6.96661 7.74613C7.05687 7.87822 7.12657 8.05964 7.1659 8.42299C7.20706 8.8032 7.20808 9.29841 7.20808 10.0384H8.70808ZM5.01245 6.79938C5.68006 7.0341 6.11881 7.18965 6.44166 7.34806C6.74488 7.49684 6.87855 7.61727 6.96661 7.74613L8.20507 6.89983C7.92089 6.48397 7.54304 6.21763 7.10241 6.00143C6.68139 5.79485 6.14395 5.60719 5.50997 5.38429L5.01245 6.79938ZM7.20808 12.76C7.20808 14.2125 7.22171 15.2599 7.35876 16.0601C7.50508 16.9144 7.79722 17.5261 8.34345 18.1022L9.43198 17.0702C9.11182 16.7325 8.93913 16.4018 8.83723 15.8069C8.72607 15.1578 8.70808 14.249 8.70808 12.76H7.20808ZM13.9375 17.75C12.5207 17.75 11.5376 17.7482 10.797 17.6432C10.0821 17.5418 9.70452 17.3576 9.43198 17.0702L8.34345 18.1022C8.93731 18.7286 9.69012 19.0013 10.5864 19.1283C11.4567 19.2518 12.5654 19.25 13.9375 19.25V17.75ZM7.95808 9.87H20.0888V8.37H7.95808V9.87ZM22.9232 12.7314L22.4235 15.1561L23.8926 15.4589L24.3923 13.0342L22.9232 12.7314ZM20.0888 9.87C20.9452 9.87 21.6989 9.871 22.2937 9.93749C22.5893 9.97053 22.8105 10.0164 22.9659 10.071C23.1273 10.1278 23.153 10.1713 23.1401 10.1544L24.329 9.23978C24.094 8.93436 23.7636 8.76145 23.4632 8.65587C23.1567 8.54818 22.8101 8.48587 22.4604 8.44678C21.7646 8.369 20.9174 8.37 20.0888 8.37V9.87ZM24.3933 13.0296C24.5625 12.1817 24.7062 11.4702 24.7414 10.9004C24.7775 10.3142 24.7108 9.73617 24.329 9.23978L23.1401 10.1544C23.2021 10.2351 23.2706 10.3804 23.2442 10.808C23.2168 11.2519 23.1002 11.8448 22.9223 12.7359L24.3933 13.0296ZM19.2404 19.25C20.0021 19.25 20.6413 19.2513 21.1566 19.1882C21.6923 19.1227 22.1809 18.9794 22.6074 18.6318L21.6598 17.469C21.5346 17.571 21.3571 17.6525 20.9744 17.6994C20.5712 17.7487 20.0397 17.75 19.2404 17.75V19.25ZM22.4235 15.1561C22.2621 15.9389 22.1535 16.4593 22.0238 16.8442C21.9007 17.2095 21.785 17.367 21.6598 17.469L22.6074 18.6318C23.0339 18.2842 23.2729 17.8346 23.4453 17.3232C23.6111 16.8312 23.7388 16.2049 23.8926 15.4589L22.4235 15.1561Z" fill="#474747"/>
<path d="M14 13.8L15.1429 15L18 12" stroke="#474747" stroke-width="1.5" stroke-linecap="round" stroke-linejoin="round"/>
</svg>
