<svg width="23" height="22" viewBox="0 0 23 22" fill="none" xmlns="http://www.w3.org/2000/svg">
<path d="M13.0334 3.66667H18.5334V9.16667H13.0334V3.66667Z" stroke="#ffffff" stroke-width="1.83333" stroke-linecap="round" stroke-linejoin="round"/>
<path d="M3.86667 12.8333H9.36667V18.3333H3.86667V12.8333Z" stroke="#ffffff" stroke-width="1.83333" stroke-linecap="round" stroke-linejoin="round"/>
<path d="M13.0334 15.5833C13.0334 16.3127 13.3231 17.0121 13.8388 17.5279C14.3545 18.0436 15.054 18.3333 15.7834 18.3333C16.5127 18.3333 17.2122 18.0436 17.7279 17.5279C18.2436 17.0121 18.5334 16.3127 18.5334 15.5833C18.5334 14.854 18.2436 14.1545 17.7279 13.6388C17.2122 13.1231 16.5127 12.8333 15.7834 12.8333C15.054 12.8333 14.3545 13.1231 13.8388 13.6388C13.3231 14.1545 13.0334 14.854 13.0334 15.5833Z" stroke="#FFFFFF" stroke-width="1.83333" stroke-linecap="round" stroke-linejoin="round"/>
<path d="M3.86667 6.41667C3.86667 6.77781 3.9378 7.13541 4.076 7.46905C4.2142 7.8027 4.41676 8.10585 4.67213 8.36122C4.92749 8.61658 5.23064 8.81914 5.56429 8.95734C5.89793 9.09554 6.25553 9.16667 6.61667 9.16667C6.9778 9.16667 7.3354 9.09554 7.66905 8.95734C8.00269 8.81914 8.30585 8.61658 8.56121 8.36122C8.81657 8.10585 9.01914 7.8027 9.15734 7.46905C9.29554 7.13541 9.36667 6.77781 9.36667 6.41667C9.36667 6.05554 9.29554 5.69794 9.15734 5.36429C9.01914 5.03065 8.81657 4.72749 8.56121 4.47213C8.30585 4.21677 8.00269 4.0142 7.66905 3.876C7.3354 3.7378 6.9778 3.66667 6.61667 3.66667C6.25553 3.66667 5.89793 3.7378 5.56429 3.876C5.23064 4.0142 4.92749 4.21677 4.67213 4.47213C4.41676 4.72749 4.2142 5.03065 4.076 5.36429C3.9378 5.69794 3.86667 6.05554 3.86667 6.41667Z" stroke="#FFFFFF" stroke-width="1.83333" stroke-linecap="round" stroke-linejoin="round"/>
</svg>
