<svg width="18" height="15" viewBox="0 0 18 15" fill="none" xmlns="http://www.w3.org/2000/svg">
<path d="M15.3314 1.25355C13.0839 -0.179518 10.3084 0.489249 8.81005 2.12932C7.31166 0.489249 4.53623 -0.18748 2.28865 1.25355C1.09675 2.01786 0.347557 3.30763 0.296476 4.66904C0.177286 7.75811 3.10595 10.2341 7.57558 14.0318L7.66071 14.1034C8.30775 14.6528 9.30383 14.6528 9.95086 14.0955L10.0445 14.0159C14.5141 10.2262 17.4343 7.75015 17.3236 4.66108C17.2725 3.30763 16.5233 2.01786 15.3314 1.25355ZM8.89518 12.8455L8.81005 12.9251L8.72491 12.8455C4.67245 9.41411 1.99919 7.14508 1.99919 4.8442C1.99919 3.2519 3.27623 2.05767 4.97894 2.05767C6.29003 2.05767 7.56707 2.84586 8.01828 3.93659H9.61032C10.053 2.84586 11.3301 2.05767 12.6412 2.05767C14.3439 2.05767 15.6209 3.2519 15.6209 4.8442C15.6209 7.14508 12.9476 9.41411 8.89518 12.8455Z" fill="#FFFFFF"/>
</svg>
