<?xml version="1.0" encoding="iso-8859-1"?>
<!-- Uploaded to: SVG Repo, www.svgrepo.com, Generator: SVG Repo Mixer Tools -->
<svg fill="#FFFFFF" height="800px" width="800px" version="1.1" id="Layer_1" xmlns="http://www.w3.org/2000/svg" xmlns:xlink="http://www.w3.org/1999/xlink" 
	 viewBox="0 0 512.009 512.009" xml:space="preserve">
<g>
	<g>
		<path d="M480.896,389.792c-41.331-21.743-80.525-37.184-115.208-44.616c16.162-20.617,28.406-45.064,34.767-70.954
			c15.37-6.276,26.231-21.378,26.231-38.979v-65.152c0-16.072-9.055-30.061-22.329-37.15C395.588,59.585,329.114,0,256.013,0
			c-73.099,0-139.57,59.581-148.343,132.933c-13.273,7.089-22.328,21.078-22.328,37.149v65.173c0,17.6,10.86,32.689,26.227,38.959
			c6.36,25.892,18.604,50.341,34.767,70.96c-34.675,7.432-73.871,22.875-115.198,44.615c-19.132,10.071-31.134,29.948-31.134,51.563
			v49.323c0,11.782,9.551,21.333,21.333,21.333h469.333c11.782,0,21.333-9.551,21.333-21.333v-49.323
			C512.004,419.735,500.021,399.86,480.896,389.792z M149.346,149.333c0-56.794,51.458-106.667,106.667-106.667
			S362.68,92.54,362.68,149.333v85.333c0,8.79-1.023,17.564-2.91,26.166c-29.315,9.323-68.973,16.501-103.75,16.501
			c-11.782,0-21.333,9.551-21.333,21.333c0,11.782,9.551,21.333,21.333,21.333c26.867,0,55.815-3.673,82.086-9.366
			c-8.967,13.225-19.864,24.742-31.797,33.555c-0.592,0.34-1.174,0.699-1.734,1.097c-11.868,8.433-24.344,13.916-36.643,16.126
			c-4.146,0.729-7.307,1.105-10.092,1.22c-0.609,0.017-1.218,0.035-1.827,0.035c-0.626,0-1.252-0.017-1.879-0.036
			c-2.756-0.115-5.827-0.474-9.438-1.096c-12.897-2.334-25.373-7.816-37.241-16.249c-0.565-0.401-1.152-0.763-1.75-1.105
			c-31.866-23.539-56.359-66.359-56.359-109.513V149.333z M469.338,469.342H42.671v-27.989c0-5.773,3.226-11.114,8.337-13.805
			c45.473-23.922,87.51-39.302,120.968-43.539h16.405c19.864,12.844,41.933,20.62,64.541,21.273
			c1.029,0.036,2.057,0.061,3.082,0.061c1.026,0,2.053-0.025,3.081-0.061c22.614-0.649,44.689-8.426,64.559-21.273h16.389
			c33.474,4.237,75.511,19.615,120.994,43.542c5.095,2.682,8.311,8.016,8.311,13.802V469.342z"/>
	</g>
</g>
</svg>